<svg id="Capa_1" enable-background="new 0 0 512 512" height="512" viewBox="0 0 512 512" width="512" xmlns="http://www.w3.org/2000/svg"><g id="XMLID_545_"><path id="XMLID_639_" d="m256 127.078c-85.423 0-154.919 69.496-154.919 154.919s69.496 154.92 154.919 154.92 154.919-69.497 154.919-154.92-69.496-154.919-154.919-154.919zm0 289.839c-74.395 0-134.919-60.524-134.919-134.92 0-74.395 60.524-134.919 134.919-134.919s134.919 60.524 134.919 134.919c0 74.396-60.524 134.92-134.919 134.92z"/><path id="XMLID_640_" d="m279.522 244.332-18.36 18.36c-1.65-.44-3.374-.697-5.163-.697-11.047 0-20.003 8.956-20.003 20.003 0 7.4 4.029 13.846 10.003 17.306v77.641c0 5.522 4.478 10 10 10s10-4.478 10-10v-77.641c5.974-3.46 10.003-9.906 10.003-17.306 0-1.788-.257-3.513-.698-5.163l18.36-18.36c3.905-3.905 3.905-10.237 0-14.143-3.905-3.904-10.235-3.904-14.142 0z"/><path id="XMLID_1043_" d="m438.26 204.638c15.924-14.184 25.24-34.656 25.24-56.176 0-25.868-13.137-48.725-33.088-62.253-2.876-48.021-42.848-86.209-91.578-86.209h-165.668c-48.73 0-88.702 38.188-91.578 86.208-19.951 13.529-33.088 36.386-33.088 62.254 0 21.52 9.316 41.992 25.24 56.176-10.131 23.778-15.743 49.925-15.743 77.359 0 52.901 20.854 101.022 54.771 136.577l-26.111 41.507c-6.666 10.595-7.032 23.462-.98 34.42 6.052 10.957 17.138 17.499 29.656 17.499 8.944 0 17.693-3.635 24.006-9.973l38.125-38.285c24.092 10.451 50.647 16.259 78.536 16.259s54.445-5.808 78.536-16.259l38.125 38.285c6.313 6.338 15.062 9.973 24.006 9.973 12.518 0 23.604-6.542 29.656-17.499 6.052-10.958 5.686-23.825-.979-34.42l-26.112-41.507c33.918-35.554 54.771-83.676 54.771-136.577 0-27.434-5.612-53.581-15.743-77.359zm5.24-56.176c0 13.89-5.305 27.175-14.532 37.264-18.239-32.64-45.439-59.619-78.258-77.571 10.122-9.436 23.528-14.859 37.624-14.859 30.418 0 55.166 24.747 55.166 55.166zm-270.334-128.462h165.668c34.212 0 62.889 24.075 70.026 56.168-6.53-1.857-13.41-2.873-20.527-2.873-21.813 0-42.434 9.5-56.631 25.752-23.334-9.69-48.902-15.053-75.702-15.053s-52.368 5.363-75.702 15.054c-14.198-16.252-34.818-25.752-56.631-25.752-7.117 0-13.997 1.016-20.527 2.873 7.137-32.094 35.814-56.169 70.026-56.169zm-104.666 128.462c0-30.419 24.748-55.166 55.167-55.166 14.096 0 27.501 5.423 37.624 14.859-32.82 17.952-60.019 44.931-78.258 77.571-9.227-10.089-14.533-23.374-14.533-37.264zm56.667 339.452c-2.624 2.635-6.116 4.086-9.834 4.086-5.128 0-9.67-2.68-12.149-7.169-2.479-4.488-2.329-9.76.402-14.1l23.999-38.149c9.594 8.194 19.977 15.489 31.019 21.754zm-47.17-205.917c0-98.151 79.852-178.003 178.003-178.003s178.003 79.852 178.003 178.003-79.852 178.004-178.003 178.004-178.003-79.853-178.003-178.004zm330.819 202.834c-2.479 4.489-7.021 7.169-12.149 7.169-3.718 0-7.21-1.451-9.834-4.086l-33.437-33.578c11.042-6.265 21.424-13.56 31.019-21.754l24 38.149c2.731 4.34 2.88 9.612.401 14.1z"/><path id="XMLID_1281_" d="m161.05 272c-2.63 0-5.21 1.06-7.07 2.93-1.859 1.86-2.93 4.43-2.93 7.07 0 2.63 1.07 5.21 2.93 7.069 1.86 1.86 4.44 2.931 7.07 2.931s5.21-1.07 7.07-2.931c1.87-1.869 2.93-4.439 2.93-7.069s-1.06-5.21-2.93-7.07c-1.86-1.87-4.431-2.93-7.07-2.93z"/><path id="XMLID_1282_" d="m358.02 274.93c-1.859-1.87-4.439-2.93-7.069-2.93-2.641 0-5.21 1.06-7.07 2.93-1.86 1.86-2.93 4.43-2.93 7.07 0 2.63 1.069 5.21 2.93 7.069 1.86 1.86 4.439 2.931 7.07 2.931 2.63 0 5.199-1.07 7.069-2.931 1.86-1.859 2.931-4.439 2.931-7.069s-1.071-5.21-2.931-7.07z"/><path id="XMLID_1283_" d="m256 197.05c2.63 0 5.21-1.07 7.069-2.93 1.86-1.86 2.931-4.44 2.931-7.07s-1.07-5.21-2.931-7.07c-1.859-1.859-4.439-2.93-7.069-2.93s-5.21 1.07-7.07 2.93-2.93 4.44-2.93 7.07 1.069 5.21 2.93 7.07c1.86 1.859 4.44 2.93 7.07 2.93z"/></g></svg>